<?xml version="1.0" encoding="iso-8859-1"?>
<!-- Generator: Adobe Illustrator 19.0.0, SVG Export Plug-In . SVG Version: 6.00 Build 0)  -->
<svg version="1.1" id="Layer_1" xmlns="http://www.w3.org/2000/svg" xmlns:xlink="http://www.w3.org/1999/xlink" x="0px" y="0px"
	 viewBox="0 0 512 512" style="enable-background:new 0 0 512 512;" xml:space="preserve">
<g>
	<g>
		<path d="M417.391,144.696h-50.087v-33.391C367.304,49.929,317.375,0,256,0S144.696,49.929,144.696,111.304v33.391H94.609
			c-27.619,0-50.087,22.468-50.087,50.087v267.13C44.522,489.532,66.99,512,94.609,512h322.783
			c27.619,0,50.087-22.468,50.087-50.087v-267.13C467.478,167.164,445.01,144.696,417.391,144.696z M178.087,111.304
			c0-42.962,34.951-77.913,77.913-77.913s77.913,34.951,77.913,77.913v33.391H178.087V111.304z M292.38,398.631
			c-8.278,6.703-17.136,13.882-26.494,21.716c-5.718,4.787-14.058,4.787-19.775,0.001c-9.361-7.835-18.217-15.014-26.492-21.721
			c-45.794-37.12-69.69-57.994-69.69-90.342c0-31.925,23.299-56.937,53.039-56.937c16.136,0,29.18,6.653,39.88,20.342L256,288.516
			l13.152-16.826c10.701-13.69,23.745-20.342,39.88-20.342c29.739,0,53.038,25.011,53.038,56.934
			C362.07,340.631,338.173,361.505,292.38,398.631z"/>
	</g>
</g>
<g>
</g>
<g>
</g>
<g>
</g>
<g>
</g>
<g>
</g>
<g>
</g>
<g>
</g>
<g>
</g>
<g>
</g>
<g>
</g>
<g>
</g>
<g>
</g>
<g>
</g>
<g>
</g>
<g>
</g>
</svg>
